# xmcd
#
# Track frame offsets:
#	150
#	13509
#	23634
#	40900
#	54413
#	70369
#	82513
#	93179
#	105255
#	120387
#	130843
#	142599
#	153506
#	169818
#	181025
#
# Disc length: 2640 seconds
#
# Revision: 5
# Processed by: cddbd v1.5.2PL0 Copyright (c) Steve Scherf et al.
# Submitted via: audiograbber 1.83.01
#
DISCID=a20a4e0f
DTITLE=John Lee Hooker - Premier Collection CD2
DYEAR=1997
DGENRE=Blues
TTITLE0=Baby Lee
TTITLE1=Dimples
TTITLE2=Blues Before Sunrise
TTITLE3=I'm Goin' Upstairs
TTITLE4=Thelma
TTITLE5=I'm In The Mood
TTITLE6=Let's Make It
TTITLE7=Whiskey And Wimmen
TTITLE8=Crawling King Snake
TTITLE9=Old Time Shimmy
TTITLE10=Little Wheel
TTITLE11=No Shoes
TTITLE12=Process
TTITLE13=Good Rockin' Mama
TTITLE14=When My First Wife Left Me
EXTD=YEAR: 1997\nmcps\nPS003-2
EXTT0=
EXTT1=
EXTT2=
EXTT3=
EXTT4=
EXTT5=
EXTT6=
EXTT7=
EXTT8=
EXTT9=
EXTT10=
EXTT11=
EXTT12=
EXTT13=
EXTT14=
PLAYORDER=
